<svg xmlns="http://www.w3.org/2000/svg" width="265.72999999999996" height="35" viewBox="0 0 265.72999999999996 35"><rect class="svg__rect" x="0" y="0" width="63.08" height="35" fill="#005384"/><rect class="svg__rect" x="61.08" y="0" width="204.64999999999998" height="35" fill="#45A4B8"/><path class="svg__text" d="M15.25 16.07L13.82 16.07Q13.82 15.29 14.18 14.67Q14.53 14.04 15.19 13.70Q15.85 13.35 16.71 13.35L16.71 13.35Q17.96 13.35 18.67 13.98Q19.39 14.60 19.39 15.70L19.39 15.70Q19.39 16.34 19.03 17.04Q18.67 17.74 17.85 18.63L17.85 18.63L15.76 20.86L19.73 20.86L19.73 22L13.99 22L13.99 21.02L16.83 17.92Q17.45 17.24 17.71 16.78Q17.97 16.32 17.97 15.85L17.97 15.85Q17.97 15.24 17.62 14.87Q17.28 14.49 16.70 14.49L16.70 14.49Q16.01 14.49 15.63 14.92Q15.25 15.34 15.25 16.07L15.25 16.07ZM23.77 18.51L23.77 18.51L23.77 17.03Q23.77 15.19 24.46 14.27Q25.15 13.35 26.56 13.35L26.56 13.35Q27.96 13.35 28.65 14.25Q29.34 15.14 29.36 16.93L29.36 16.93L29.36 18.41Q29.36 20.25 28.67 21.18Q27.98 22.12 26.57 22.12L26.57 22.12Q25.19 22.12 24.49 21.21Q23.79 20.29 23.77 18.51ZM25.19 16.68L25.19 18.61Q25.19 19.81 25.53 20.39Q25.86 20.98 26.57 20.98L26.57 20.98Q27.26 20.98 27.59 20.44Q27.92 19.90 27.93 18.74L27.93 18.74L27.93 16.81Q27.93 15.61 27.61 15.05Q27.28 14.49 26.56 14.49L26.56 14.49Q25.87 14.49 25.54 15.02Q25.21 15.55 25.19 16.68L25.19 16.68ZM34.87 16.07L33.44 16.07Q33.44 15.29 33.80 14.67Q34.15 14.04 34.81 13.70Q35.47 13.35 36.33 13.35L36.33 13.35Q37.57 13.35 38.29 13.98Q39.01 14.60 39.01 15.70L39.01 15.70Q39.01 16.34 38.65 17.04Q38.29 17.74 37.47 18.63L37.47 18.63L35.38 20.86L39.34 20.86L39.34 22L33.61 22L33.61 21.02L36.45 17.92Q37.06 17.24 37.32 16.78Q37.58 16.32 37.58 15.85L37.58 15.85Q37.58 15.24 37.24 14.87Q36.90 14.49 36.32 14.49L36.32 14.49Q35.63 14.49 35.25 14.92Q34.87 15.34 34.87 16.07L34.87 16.07ZM43.24 19.71L43.24 19.71L44.66 19.71Q44.66 20.28 45.04 20.63Q45.42 20.98 46.06 20.98L46.06 20.98Q46.72 20.98 47.10 20.63Q47.48 20.28 47.48 19.61L47.48 19.61Q47.48 18.94 47.08 18.57Q46.68 18.21 45.90 18.21L45.90 18.21L45.06 18.21L45.06 17.08L45.93 17.08Q46.58 17.08 46.97 16.74Q47.35 16.41 47.35 15.78L47.35 15.78Q47.35 15.17 47.03 14.83Q46.71 14.49 46.06 14.49L46.06 14.49Q45.48 14.49 45.11 14.83Q44.74 15.16 44.74 15.69L44.74 15.69L43.32 15.69Q43.32 15.03 43.67 14.49Q44.02 13.96 44.64 13.65Q45.27 13.35 46.04 13.35L46.04 13.35Q47.32 13.35 48.05 13.99Q48.78 14.63 48.78 15.78L48.78 15.78Q48.78 16.35 48.41 16.86Q48.04 17.37 47.46 17.62L47.46 17.62Q48.17 17.86 48.53 18.38Q48.90 18.89 48.90 19.61L48.90 19.61Q48.90 20.76 48.11 21.44Q47.32 22.12 46.04 22.12L46.04 22.12Q44.81 22.12 44.02 21.46Q43.24 20.80 43.24 19.71Z" fill="#FFFFFF"/><path class="svg__text" d="M81.65 22L75.27 22L75.27 13.60L77.65 13.60L77.65 20.11L81.65 20.11L81.65 22ZM92.82 22L86.07 22L86.07 13.60L92.66 13.60L92.66 15.44L88.43 15.44L88.43 16.85L92.16 16.85L92.16 18.63L88.43 18.63L88.43 20.17L92.82 20.17L92.82 22ZM99.04 22L96.61 22L100.32 13.60L102.67 13.60L106.38 22L103.91 22L103.25 20.37L99.70 20.37L99.04 22ZM101.48 15.93L100.39 18.61L102.55 18.61L101.48 15.93ZM112.91 22L110.54 22L110.54 13.60L114.38 13.60Q115.52 13.60 116.36 13.98Q117.20 14.35 117.65 15.06Q118.11 15.76 118.11 16.71L118.11 16.71Q118.11 17.62 117.68 18.30Q117.26 18.98 116.47 19.36L116.47 19.36L118.28 22L115.73 22L114.21 19.77L112.91 19.77L112.91 22ZM112.91 15.47L112.91 17.93L114.23 17.93Q114.97 17.93 115.34 17.61Q115.71 17.29 115.71 16.71L115.71 16.71Q115.71 16.12 115.34 15.79Q114.97 15.47 114.23 15.47L114.23 15.47L112.91 15.47ZM125.23 22L122.90 22L122.90 13.60L124.86 13.60L128.56 18.07L128.56 13.60L130.89 13.60L130.89 22L128.94 22L125.23 17.52L125.23 22ZM138.43 22L136.05 22L136.05 13.60L138.43 13.60L138.43 22ZM145.94 22L143.61 22L143.61 13.60L145.56 13.60L149.27 18.07L149.27 13.60L151.60 13.60L151.60 22L149.65 22L145.94 17.52L145.94 22ZM156.33 17.80L156.33 17.80Q156.33 16.54 156.93 15.54Q157.53 14.55 158.60 13.99Q159.67 13.43 161.01 13.43L161.01 13.43Q162.19 13.43 163.12 13.83Q164.06 14.22 164.68 14.97L164.68 14.97L163.17 16.33Q162.33 15.40 161.15 15.40L161.15 15.40Q161.14 15.40 161.13 15.40L161.13 15.40Q160.05 15.40 159.39 16.06Q158.73 16.71 158.73 17.80L158.73 17.80Q158.73 18.50 159.03 19.04Q159.33 19.59 159.87 19.89Q160.41 20.20 161.11 20.20L161.11 20.20Q161.79 20.20 162.39 19.93L162.39 19.93L162.39 17.62L164.49 17.62L164.49 21.10Q163.77 21.61 162.83 21.89Q161.90 22.17 160.96 22.17L160.96 22.17Q159.64 22.17 158.59 21.61Q157.53 21.05 156.93 20.05Q156.33 19.06 156.33 17.80ZM178.83 22L176.45 22L176.45 13.60L180.30 13.60Q181.44 13.60 182.28 13.98Q183.12 14.35 183.57 15.06Q184.03 15.76 184.03 16.71L184.03 16.71Q184.03 17.62 183.60 18.30Q183.17 18.98 182.38 19.36L182.38 19.36L184.19 22L181.65 22L180.13 19.77L178.83 19.77L178.83 22ZM178.83 15.47L178.83 17.93L180.15 17.93Q180.88 17.93 181.26 17.61Q181.63 17.29 181.63 16.71L181.63 16.71Q181.63 16.12 181.26 15.79Q180.88 15.47 180.15 15.47L180.15 15.47L178.83 15.47ZM188.39 17.80L188.39 17.80Q188.39 16.55 188.99 15.55Q189.60 14.56 190.66 14.00Q191.72 13.43 193.05 13.43L193.05 13.43Q194.38 13.43 195.45 14.00Q196.51 14.56 197.12 15.55Q197.72 16.55 197.72 17.80L197.72 17.80Q197.72 19.05 197.12 20.04Q196.51 21.04 195.45 21.60Q194.39 22.17 193.05 22.17L193.05 22.17Q191.72 22.17 190.66 21.60Q189.60 21.04 188.99 20.04Q188.39 19.05 188.39 17.80ZM190.79 17.80L190.79 17.80Q190.79 18.51 191.09 19.05Q191.39 19.60 191.90 19.90Q192.42 20.20 193.05 20.20L193.05 20.20Q193.69 20.20 194.21 19.90Q194.72 19.60 195.02 19.05Q195.32 18.51 195.32 17.80L195.32 17.80Q195.32 17.09 195.02 16.54Q194.72 16 194.21 15.70Q193.69 15.40 193.05 15.40L193.05 15.40Q192.41 15.40 191.90 15.70Q191.39 16 191.09 16.54Q190.79 17.09 190.79 17.80ZM202.38 18.26L202.38 18.26L202.38 13.60L204.76 13.60L204.76 18.19Q204.76 20.20 206.35 20.20L206.35 20.20Q207.94 20.20 207.94 18.19L207.94 18.19L207.94 13.60L210.28 13.60L210.28 18.26Q210.28 20.13 209.24 21.15Q208.20 22.17 206.33 22.17L206.33 22.17Q204.46 22.17 203.42 21.15Q202.38 20.13 202.38 18.26ZM217.16 15.48L214.57 15.48L214.57 13.60L222.10 13.60L222.10 15.48L219.53 15.48L219.53 22L217.16 22L217.16 15.48ZM228.85 22L226.47 22L226.47 13.60L228.85 13.60L228.85 22ZM236.35 22L234.02 22L234.02 13.60L235.98 13.60L239.69 18.07L239.69 13.60L242.01 13.60L242.01 22L240.06 22L236.35 17.52L236.35 22ZM253.92 22L247.18 22L247.18 13.60L253.77 13.60L253.77 15.44L249.53 15.44L249.53 16.85L253.26 16.85L253.26 18.63L249.53 18.63L249.53 20.17L253.92 20.17L253.92 22Z" fill="#EF0000" x="74.08"/></svg>