<svg xmlns="http://www.w3.org/2000/svg" width="531.3900000000001" height="35" viewBox="0 0 531.3900000000001 35"><rect class="svg__rect" x="0" y="0" width="63.08" height="35" fill="#005384"/><rect class="svg__rect" x="61.08" y="0" width="470.31000000000006" height="35" fill="#00B5C4"/><path class="svg__text" d="M15.25 16.07L13.82 16.07Q13.82 15.29 14.18 14.67Q14.53 14.04 15.19 13.70Q15.85 13.35 16.71 13.35L16.71 13.35Q17.96 13.35 18.67 13.98Q19.39 14.60 19.39 15.70L19.39 15.70Q19.39 16.34 19.03 17.04Q18.67 17.74 17.85 18.63L17.85 18.63L15.76 20.86L19.73 20.86L19.73 22L13.99 22L13.99 21.02L16.83 17.92Q17.45 17.24 17.71 16.78Q17.97 16.32 17.97 15.85L17.97 15.85Q17.97 15.24 17.62 14.87Q17.28 14.49 16.70 14.49L16.70 14.49Q16.01 14.49 15.63 14.92Q15.25 15.34 15.25 16.07L15.25 16.07ZM23.77 18.51L23.77 18.51L23.77 17.03Q23.77 15.19 24.46 14.27Q25.15 13.35 26.56 13.35L26.56 13.35Q27.96 13.35 28.65 14.25Q29.34 15.14 29.36 16.93L29.36 16.93L29.36 18.41Q29.36 20.25 28.67 21.18Q27.98 22.12 26.57 22.12L26.57 22.12Q25.19 22.12 24.49 21.21Q23.79 20.29 23.77 18.51ZM25.19 16.68L25.19 18.61Q25.19 19.81 25.53 20.39Q25.86 20.98 26.57 20.98L26.57 20.98Q27.26 20.98 27.59 20.44Q27.92 19.90 27.93 18.74L27.93 18.74L27.93 16.81Q27.93 15.61 27.61 15.05Q27.28 14.49 26.56 14.49L26.56 14.49Q25.87 14.49 25.54 15.02Q25.21 15.55 25.19 16.68L25.19 16.68ZM34.87 16.07L33.44 16.07Q33.44 15.29 33.80 14.67Q34.15 14.04 34.81 13.70Q35.47 13.35 36.33 13.35L36.33 13.35Q37.57 13.35 38.29 13.98Q39.01 14.60 39.01 15.70L39.01 15.70Q39.01 16.34 38.65 17.04Q38.29 17.74 37.47 18.63L37.47 18.63L35.38 20.86L39.34 20.86L39.34 22L33.61 22L33.61 21.02L36.45 17.92Q37.06 17.24 37.32 16.78Q37.58 16.32 37.58 15.85L37.58 15.85Q37.58 15.24 37.24 14.87Q36.90 14.49 36.32 14.49L36.32 14.49Q35.63 14.49 35.25 14.92Q34.87 15.34 34.87 16.07L34.87 16.07ZM43.24 19.71L43.24 19.71L44.66 19.71Q44.66 20.28 45.04 20.63Q45.42 20.98 46.06 20.98L46.06 20.98Q46.72 20.98 47.10 20.63Q47.48 20.28 47.48 19.61L47.48 19.61Q47.48 18.94 47.08 18.57Q46.68 18.21 45.90 18.21L45.90 18.21L45.06 18.21L45.06 17.08L45.93 17.08Q46.58 17.08 46.97 16.74Q47.35 16.41 47.35 15.78L47.35 15.78Q47.35 15.17 47.03 14.83Q46.71 14.49 46.06 14.49L46.06 14.49Q45.48 14.49 45.11 14.83Q44.74 15.16 44.74 15.69L44.74 15.69L43.32 15.69Q43.32 15.03 43.67 14.49Q44.02 13.96 44.64 13.65Q45.27 13.35 46.04 13.35L46.04 13.35Q47.32 13.35 48.05 13.99Q48.78 14.63 48.78 15.78L48.78 15.78Q48.78 16.35 48.41 16.86Q48.04 17.37 47.46 17.62L47.46 17.62Q48.17 17.86 48.53 18.38Q48.90 18.89 48.90 19.61L48.90 19.61Q48.90 20.76 48.11 21.44Q47.32 22.12 46.04 22.12L46.04 22.12Q44.81 22.12 44.02 21.46Q43.24 20.80 43.24 19.71Z" fill="#FFFFFF"/><path class="svg__text" d="M77.65 22L75.27 22L75.27 13.60L79.11 13.60Q80.25 13.60 81.09 13.98Q81.93 14.35 82.39 15.06Q82.84 15.76 82.84 16.71L82.84 16.71Q82.84 17.62 82.42 18.30Q81.99 18.98 81.20 19.36L81.20 19.36L83.01 22L80.47 22L78.94 19.77L77.65 19.77L77.65 22ZM77.65 15.47L77.65 17.93L78.97 17.93Q79.70 17.93 80.07 17.61Q80.44 17.29 80.44 16.71L80.44 16.71Q80.44 16.12 80.07 15.79Q79.70 15.47 78.97 15.47L78.97 15.47L77.65 15.47ZM87.20 17.80L87.20 17.80Q87.20 16.55 87.81 15.55Q88.41 14.56 89.47 14.00Q90.54 13.43 91.87 13.43L91.87 13.43Q93.20 13.43 94.26 14.00Q95.32 14.56 95.93 15.55Q96.54 16.55 96.54 17.80L96.54 17.80Q96.54 19.05 95.93 20.04Q95.32 21.04 94.26 21.60Q93.20 22.17 91.87 22.17L91.87 22.17Q90.54 22.17 89.47 21.60Q88.41 21.04 87.81 20.04Q87.20 19.05 87.20 17.80ZM89.60 17.80L89.60 17.80Q89.60 18.51 89.90 19.05Q90.20 19.60 90.72 19.90Q91.23 20.20 91.87 20.20L91.87 20.20Q92.51 20.20 93.02 19.90Q93.54 19.60 93.84 19.05Q94.14 18.51 94.14 17.80L94.14 17.80Q94.14 17.09 93.84 16.54Q93.54 16 93.02 15.70Q92.51 15.40 91.87 15.40L91.87 15.40Q91.23 15.40 90.72 15.70Q90.20 16 89.90 16.54Q89.60 17.09 89.60 17.80ZM101.20 18.26L101.20 18.26L101.20 13.60L103.57 13.60L103.57 18.19Q103.57 20.20 105.17 20.20L105.17 20.20Q106.75 20.20 106.75 18.19L106.75 18.19L106.75 13.60L109.09 13.60L109.09 18.26Q109.09 20.13 108.05 21.15Q107.01 22.17 105.14 22.17L105.14 22.17Q103.27 22.17 102.23 21.15Q101.20 20.13 101.20 18.26ZM115.97 15.48L113.39 15.48L113.39 13.60L120.91 13.60L120.91 15.48L118.35 15.48L118.35 22L115.97 22L115.97 15.48ZM127.66 22L125.28 22L125.28 13.60L127.66 13.60L127.66 22ZM135.17 22L132.84 22L132.84 13.60L134.79 13.60L138.50 18.07L138.50 13.60L140.83 13.60L140.83 22L138.88 22L135.17 17.52L135.17 22ZM152.73 22L145.99 22L145.99 13.60L152.58 13.60L152.58 15.44L148.35 15.44L148.35 16.85L152.08 16.85L152.08 18.63L148.35 18.63L148.35 20.17L152.73 20.17L152.73 22ZM168.48 22L164.51 22L164.51 13.60L168.48 13.60Q169.87 13.60 170.93 14.12Q172.00 14.63 172.59 15.58Q173.18 16.53 173.18 17.80L173.18 17.80Q173.18 19.07 172.59 20.02Q172.00 20.97 170.93 21.48Q169.87 22 168.48 22L168.48 22ZM166.89 15.50L166.89 20.10L168.39 20.10Q169.47 20.10 170.12 19.49Q170.78 18.88 170.78 17.80L170.78 17.80Q170.78 16.72 170.12 16.11Q169.47 15.50 168.39 15.50L168.39 15.50L166.89 15.50ZM184.65 22L177.91 22L177.91 13.60L184.50 13.60L184.50 15.44L180.26 15.44L180.26 16.85L183.99 16.85L183.99 18.63L180.26 18.63L180.26 20.17L184.65 20.17L184.65 22ZM198.81 22L196.43 22L196.43 13.60L200.27 13.60Q201.41 13.60 202.25 13.98Q203.09 14.35 203.55 15.06Q204.00 15.76 204.00 16.71L204.00 16.71Q204.00 17.62 203.58 18.30Q203.15 18.98 202.36 19.36L202.36 19.36L204.17 22L201.63 22L200.10 19.77L198.81 19.77L198.81 22ZM198.81 15.47L198.81 17.93L200.13 17.93Q200.86 17.93 201.23 17.61Q201.60 17.29 201.60 16.71L201.60 16.71Q201.60 16.12 201.23 15.79Q200.86 15.47 200.13 15.47L200.13 15.47L198.81 15.47ZM215.54 22L208.79 22L208.79 13.60L215.38 13.60L215.38 15.44L211.15 15.44L211.15 16.85L214.88 16.85L214.88 18.63L211.15 18.63L211.15 20.17L215.54 20.17L215.54 22ZM219.91 17.80L219.91 17.80Q219.91 16.54 220.51 15.54Q221.11 14.55 222.16 13.99Q223.21 13.43 224.53 13.43L224.53 13.43Q225.68 13.43 226.61 13.84Q227.53 14.25 228.14 15.02L228.14 15.02L226.63 16.39Q225.82 15.40 224.65 15.40L224.65 15.40Q223.97 15.40 223.43 15.70Q222.90 16 222.60 16.54Q222.31 17.09 222.31 17.80L222.31 17.80Q222.31 18.51 222.60 19.05Q222.90 19.60 223.43 19.90Q223.97 20.20 224.65 20.20L224.65 20.20Q225.82 20.20 226.63 19.22L226.63 19.22L228.14 20.58Q227.54 21.35 226.61 21.76Q225.68 22.17 224.53 22.17L224.53 22.17Q223.21 22.17 222.16 21.61Q221.11 21.05 220.51 20.05Q219.91 19.06 219.91 17.80ZM232.25 17.80L232.25 17.80Q232.25 16.55 232.86 15.55Q233.46 14.56 234.52 14.00Q235.59 13.43 236.92 13.43L236.92 13.43Q238.25 13.43 239.31 14.00Q240.37 14.56 240.98 15.55Q241.59 16.55 241.59 17.80L241.59 17.80Q241.59 19.05 240.98 20.04Q240.37 21.04 239.31 21.60Q238.25 22.17 236.92 22.17L236.92 22.17Q235.59 22.17 234.52 21.60Q233.46 21.04 232.86 20.04Q232.25 19.05 232.25 17.80ZM234.65 17.80L234.65 17.80Q234.65 18.51 234.95 19.05Q235.25 19.60 235.77 19.90Q236.28 20.20 236.92 20.20L236.92 20.20Q237.55 20.20 238.07 19.90Q238.59 19.60 238.89 19.05Q239.18 18.51 239.18 17.80L239.18 17.80Q239.18 17.09 238.89 16.54Q238.59 16 238.07 15.70Q237.55 15.40 236.92 15.40L236.92 15.40Q236.28 15.40 235.76 15.70Q235.25 16 234.95 16.54Q234.65 17.09 234.65 17.80ZM248.65 22L246.31 22L246.31 13.60L248.27 13.60L251.98 18.07L251.98 13.60L254.31 13.60L254.31 22L252.36 22L248.65 17.52L248.65 22ZM262.05 22L258.46 13.60L261.03 13.60L263.31 19.07L265.64 13.60L267.99 13.60L264.39 22L262.05 22ZM278.89 22L272.14 22L272.14 13.60L278.73 13.60L278.73 15.44L274.50 15.44L274.50 16.85L278.23 16.85L278.23 18.63L274.50 18.63L274.50 20.17L278.89 20.17L278.89 22ZM286.07 22L283.69 22L283.69 13.60L287.54 13.60Q288.68 13.60 289.52 13.98Q290.35 14.35 290.81 15.06Q291.27 15.76 291.27 16.71L291.27 16.71Q291.27 17.62 290.84 18.30Q290.41 18.98 289.62 19.36L289.62 19.36L291.43 22L288.89 22L287.37 19.77L286.07 19.77L286.07 22ZM286.07 15.47L286.07 17.93L287.39 17.93Q288.12 17.93 288.49 17.61Q288.87 17.29 288.87 16.71L288.87 16.71Q288.87 16.12 288.49 15.79Q288.12 15.47 287.39 15.47L287.39 15.47L286.07 15.47ZM295.47 21.24L295.47 21.24L296.25 19.49Q296.81 19.86 297.56 20.09Q298.30 20.32 299.02 20.32L299.02 20.32Q300.39 20.32 300.39 19.64L300.39 19.64Q300.39 19.28 300.00 19.11Q299.61 18.93 298.74 18.74L298.74 18.74Q297.80 18.53 297.16 18.30Q296.52 18.06 296.07 17.55Q295.62 17.03 295.62 16.16L295.62 16.16Q295.62 15.39 296.03 14.77Q296.45 14.15 297.29 13.79Q298.12 13.43 299.33 13.43L299.33 13.43Q300.16 13.43 300.96 13.62Q301.77 13.80 302.38 14.17L302.38 14.17L301.65 15.93Q300.45 15.28 299.32 15.28L299.32 15.28Q298.61 15.28 298.29 15.49Q297.97 15.70 297.97 16.04L297.97 16.04Q297.97 16.37 298.35 16.54Q298.73 16.71 299.58 16.89L299.58 16.89Q300.54 17.10 301.17 17.33Q301.80 17.56 302.27 18.07Q302.73 18.58 302.73 19.46L302.73 19.46Q302.73 20.21 302.31 20.83Q301.89 21.44 301.05 21.80Q300.21 22.17 299.01 22.17L299.01 22.17Q297.99 22.17 297.03 21.92Q296.07 21.67 295.47 21.24ZM309.68 22L307.31 22L307.31 13.60L309.68 13.60L309.68 22ZM314.43 17.80L314.43 17.80Q314.43 16.55 315.03 15.55Q315.64 14.56 316.70 14.00Q317.76 13.43 319.09 13.43L319.09 13.43Q320.42 13.43 321.49 14.00Q322.55 14.56 323.16 15.55Q323.76 16.55 323.76 17.80L323.76 17.80Q323.76 19.05 323.16 20.04Q322.55 21.04 321.49 21.60Q320.43 22.17 319.09 22.17L319.09 22.17Q317.76 22.17 316.70 21.60Q315.64 21.04 315.03 20.04Q314.43 19.05 314.43 17.80ZM316.83 17.80L316.83 17.80Q316.83 18.51 317.13 19.05Q317.43 19.60 317.95 19.90Q318.46 20.20 319.09 20.20L319.09 20.20Q319.73 20.20 320.25 19.90Q320.76 19.60 321.06 19.05Q321.36 18.51 321.36 17.80L321.36 17.80Q321.36 17.09 321.06 16.54Q320.76 16 320.25 15.70Q319.73 15.40 319.09 15.40L319.09 15.40Q318.46 15.40 317.94 15.70Q317.43 16 317.13 16.54Q316.83 17.09 316.83 17.80ZM330.82 22L328.49 22L328.49 13.60L330.45 13.60L334.16 18.07L334.16 13.60L336.48 13.60L336.48 22L334.53 22L330.82 17.52L330.82 22ZM351.00 22L348.62 22L348.62 13.60L352.46 13.60Q353.60 13.60 354.44 13.98Q355.28 14.35 355.74 15.06Q356.20 15.76 356.20 16.71L356.20 16.71Q356.20 17.66 355.74 18.35Q355.28 19.05 354.44 19.42Q353.60 19.80 352.46 19.80L352.46 19.80L351.00 19.80L351.00 22ZM351.00 15.47L351.00 17.93L352.32 17.93Q353.05 17.93 353.42 17.61Q353.79 17.29 353.79 16.71L353.79 16.71Q353.79 16.12 353.42 15.80Q353.05 15.47 352.32 15.47L352.32 15.47L351.00 15.47ZM363.33 22L360.95 22L360.95 13.60L364.79 13.60Q365.93 13.60 366.77 13.98Q367.61 14.35 368.07 15.06Q368.52 15.76 368.52 16.71L368.52 16.71Q368.52 17.62 368.10 18.30Q367.67 18.98 366.88 19.36L366.88 19.36L368.69 22L366.14 22L364.62 19.77L363.33 19.77L363.33 22ZM363.33 15.47L363.33 17.93L364.64 17.93Q365.38 17.93 365.75 17.61Q366.12 17.29 366.12 16.71L366.12 16.71Q366.12 16.12 365.75 15.79Q365.38 15.47 364.64 15.47L364.64 15.47L363.33 15.47ZM372.88 17.80L372.88 17.80Q372.88 16.55 373.49 15.55Q374.09 14.56 375.15 14.00Q376.22 13.43 377.55 13.43L377.55 13.43Q378.88 13.43 379.94 14.00Q381.00 14.56 381.61 15.55Q382.22 16.55 382.22 17.80L382.22 17.80Q382.22 19.05 381.61 20.04Q381.00 21.04 379.94 21.60Q378.88 22.17 377.55 22.17L377.55 22.17Q376.22 22.17 375.15 21.60Q374.09 21.04 373.49 20.04Q372.88 19.05 372.88 17.80ZM375.28 17.80L375.28 17.80Q375.28 18.51 375.58 19.05Q375.88 19.60 376.40 19.90Q376.91 20.20 377.55 20.20L377.55 20.20Q378.19 20.20 378.70 19.90Q379.22 19.60 379.52 19.05Q379.81 18.51 379.81 17.80L379.81 17.80Q379.81 17.09 379.52 16.54Q379.22 16 378.70 15.70Q378.19 15.40 377.55 15.40L377.55 15.40Q376.91 15.40 376.40 15.70Q375.88 16 375.58 16.54Q375.28 17.09 375.28 17.80ZM389.32 22L386.95 22L386.95 13.60L393.54 13.60L393.54 15.44L389.32 15.44L389.32 17.28L393.03 17.28L393.03 19.12L389.32 19.12L389.32 22ZM404.88 22L398.13 22L398.13 13.60L404.72 13.60L404.72 15.44L400.49 15.44L400.49 16.85L404.22 16.85L404.22 18.63L400.49 18.63L400.49 20.17L404.88 20.17L404.88 22ZM409.09 21.24L409.09 21.24L409.87 19.49Q410.44 19.86 411.18 20.09Q411.92 20.32 412.64 20.32L412.64 20.32Q414.01 20.32 414.02 19.64L414.02 19.64Q414.02 19.28 413.63 19.11Q413.24 18.93 412.37 18.74L412.37 18.74Q411.42 18.53 410.78 18.30Q410.15 18.06 409.69 17.55Q409.24 17.03 409.24 16.16L409.24 16.16Q409.24 15.39 409.66 14.77Q410.08 14.15 410.91 13.79Q411.75 13.43 412.96 13.43L412.96 13.43Q413.78 13.43 414.59 13.62Q415.39 13.80 416.01 14.17L416.01 14.17L415.28 15.93Q414.07 15.28 412.94 15.28L412.94 15.28Q412.23 15.28 411.91 15.49Q411.59 15.70 411.59 16.04L411.59 16.04Q411.59 16.37 411.97 16.54Q412.36 16.71 413.21 16.89L413.21 16.89Q414.17 17.10 414.80 17.33Q415.43 17.56 415.89 18.07Q416.35 18.58 416.35 19.46L416.35 19.46Q416.35 20.21 415.93 20.83Q415.52 21.44 414.68 21.80Q413.83 22.17 412.63 22.17L412.63 22.17Q411.61 22.17 410.65 21.92Q409.69 21.67 409.09 21.24ZM420.34 21.24L420.34 21.24L421.12 19.49Q421.69 19.86 422.43 20.09Q423.17 20.32 423.89 20.32L423.89 20.32Q425.26 20.32 425.27 19.64L425.27 19.64Q425.27 19.28 424.88 19.11Q424.49 18.93 423.62 18.74L423.62 18.74Q422.67 18.53 422.03 18.30Q421.40 18.06 420.94 17.55Q420.49 17.03 420.49 16.16L420.49 16.16Q420.49 15.39 420.91 14.77Q421.33 14.15 422.16 13.79Q423.00 13.43 424.21 13.43L424.21 13.43Q425.03 13.43 425.84 13.62Q426.64 13.80 427.26 14.17L427.26 14.17L426.53 15.93Q425.32 15.28 424.19 15.28L424.19 15.28Q423.48 15.28 423.16 15.49Q422.84 15.70 422.84 16.04L422.84 16.04Q422.84 16.37 423.22 16.54Q423.61 16.71 424.46 16.89L424.46 16.89Q425.42 17.10 426.05 17.33Q426.68 17.56 427.14 18.07Q427.60 18.58 427.60 19.46L427.60 19.46Q427.60 20.21 427.18 20.83Q426.77 21.44 425.93 21.80Q425.08 22.17 423.88 22.17L423.88 22.17Q422.86 22.17 421.90 21.92Q420.94 21.67 420.34 21.24ZM434.56 22L432.18 22L432.18 13.60L434.56 13.60L434.56 22ZM439.31 17.80L439.31 17.80Q439.31 16.55 439.91 15.55Q440.51 14.56 441.58 14.00Q442.64 13.43 443.97 13.43L443.97 13.43Q445.30 13.43 446.36 14.00Q447.43 14.56 448.03 15.55Q448.64 16.55 448.64 17.80L448.64 17.80Q448.64 19.05 448.03 20.04Q447.43 21.04 446.37 21.60Q445.31 22.17 443.97 22.17L443.97 22.17Q442.64 22.17 441.58 21.60Q440.51 21.04 439.91 20.04Q439.31 19.05 439.31 17.80ZM441.70 17.80L441.70 17.80Q441.70 18.51 442.00 19.05Q442.31 19.60 442.82 19.90Q443.34 20.20 443.97 20.20L443.97 20.20Q444.61 20.20 445.12 19.90Q445.64 19.60 445.94 19.05Q446.24 18.51 446.24 17.80L446.24 17.80Q446.24 17.09 445.94 16.54Q445.64 16 445.12 15.70Q444.61 15.40 443.97 15.40L443.97 15.40Q443.33 15.40 442.82 15.70Q442.31 16 442.00 16.54Q441.70 17.09 441.70 17.80ZM455.70 22L453.37 22L453.37 13.60L455.32 13.60L459.03 18.07L459.03 13.60L461.36 13.60L461.36 22L459.41 22L455.70 17.52L455.70 22ZM468.85 22L466.52 22L466.52 13.60L468.48 13.60L472.19 18.07L472.19 13.60L474.51 13.60L474.51 22L472.56 22L468.85 17.52L468.85 22ZM486.42 22L479.68 22L479.68 13.60L486.27 13.60L486.27 15.44L482.03 15.44L482.03 16.85L485.76 16.85L485.76 18.63L482.03 18.63L482.03 20.17L486.42 20.17L486.42 22ZM497.61 22L491.22 22L491.22 13.60L493.60 13.60L493.60 20.11L497.61 20.11L497.61 22ZM508.42 22L502.03 22L502.03 13.60L504.41 13.60L504.41 20.11L508.42 20.11L508.42 22ZM519.58 22L512.83 22L512.83 13.60L519.43 13.60L519.43 15.44L515.19 15.44L515.19 16.85L518.92 16.85L518.92 18.63L515.19 18.63L515.19 20.17L519.58 20.17L519.58 22Z" fill="#FF0A0A" x="74.08"/></svg>